<?xml version="1.0" encoding="UTF-8"?>
<svg id="Layer_1" data-name="Layer 1" xmlns="http://www.w3.org/2000/svg" viewBox="0 0 188.32 52.55">
  <defs>
    <style>
      .cls-1 {
        isolation: isolate;
      }

      .cls-2 {
        fill: #fff;
      }

      .cls-3 {
        fill: none;
        stroke: #fff;
        stroke-miterlimit: 10;
        stroke-width: .3px;
      }
    </style>
  </defs>
  <g>
    <path class="cls-3" d="M10.3.98c.23,1.2,2.82,5.65,2.44,6.49-.64,1.45-5.52,3.08-7.13,2.69L2.63,3.41c1.29-.43,2.15-1.55,3.51-2.05.79-.29,3.58-.97,4.16-.39h0ZM9.84,3.49c-.21-.11-.41-.07-.62-.07l.23,1.13-1.59-.68.23,1.13c-1.03.49-.61-.77-1.82-.45v1.13c-.73.15-.66-.21-1.02-.67-.95,1.17-.11,1.85.68,2.7.68-.71-.4-1.56,1.24-1.35v.67h.69l.34-1.35c.36.46.29.83,1.02.67v-1.13c.73-.21.6.3.84.44,1.32.79.6-.79.98-1.57-.74.23-1.08-.55-1.19-.61h0Z"/>
    <path class="cls-3" d="M1.04,19.02c-.07-.71.6-.68,1.12-.69l.11-1.14c.15-.23.45-.19.69-.22,1.92-.24,7.6-.21,9.53.03.27.03.54.12.78.23l.03,1.1c.59-.02,1.41-.13,1.36.68H1.04Z"/>
    <path class="cls-3" d="M4.22,16.3v-.9c1.76.42,1.57-1.53,1.36-2.71h3.96c.27.03-.19,1.97.88,2.63.45.28,1.26-.08,1.06.99h-7.27.01Z"/>
    <path class="cls-3" d="M13.31,6.36L11.04.71l4.76,1.71c-.29.63-1.51,4.6-2.49,3.94Z"/>
    <path class="cls-3" d="M3.17,6.95c.04.08.34.17.5.51.18.38,1.14,2.56,1,2.74-.78-.15-4.32-1.04-4.52-1.73.31-1.48.95-2.98,1.91-4.15.52.8.69,1.79,1.11,2.63Z"/>
    <path class="cls-3" d="M4.03,11.75l-.03-.87c2.6.27,5.18-.09,7.49-1.36-.1.59.31,2.24-.37,2.46-.99-.05-6.79.28-7.09-.23Z"/>
    <path class="cls-3" d="M9.84,3.49c.11.06.46.85,1.19.61-.38.78.34,2.36-.98,1.57-.24-.14-.11-.65-.84-.44v1.13c-.73.15-.66-.21-1.02-.67l-.34,1.35h-.68v-.67c-1.64-.22-.57.64-1.24,1.35-.79-.86-1.64-1.54-.68-2.7.36.46.29.83,1.02.67v-1.13c1.21-.31.79.94,1.82.45l-.23-1.13,1.59.68-.23-1.13c.22,0,.42-.04.62.07h0Z"/>
  </g>
  <g class="cls-1">
    <g class="cls-1">
      <path class="cls-2" d="M19.93,13.75l3.09-.3c.19,1.04.56,1.8,1.13,2.29s1.34.73,2.3.73c1.02,0,1.8-.22,2.31-.65.52-.43.78-.94.78-1.52,0-.37-.11-.69-.33-.95-.22-.26-.6-.49-1.14-.68-.37-.13-1.22-.36-2.55-.69-1.7-.42-2.9-.94-3.59-1.56-.97-.87-1.45-1.92-1.45-3.17,0-.8.23-1.55.68-2.25.45-.7,1.11-1.23,1.97-1.6.86-.37,1.89-.55,3.1-.55,1.98,0,3.46.43,4.46,1.3s1.52,2.02,1.57,3.47l-3.18.14c-.14-.81-.43-1.39-.88-1.75-.45-.35-1.12-.53-2.01-.53s-1.65.19-2.17.57c-.34.24-.5.57-.5.98,0,.37.16.69.47.96.4.34,1.38.69,2.92,1.05s2.69.74,3.43,1.13c.74.39,1.32.92,1.74,1.6.42.68.63,1.51.63,2.51,0,.9-.25,1.75-.75,2.54-.5.79-1.21,1.37-2.13,1.76-.92.38-2.06.57-3.43.57-1.99,0-3.52-.46-4.59-1.38-1.07-.92-1.7-2.26-1.91-4.02Z"/>
      <path class="cls-2" d="M35.41,18.87V3.13h5.1c1.93,0,3.19.08,3.78.24.9.24,1.66.75,2.27,1.54.61.79.91,1.81.91,3.07,0,.97-.18,1.78-.53,2.44-.35.66-.8,1.18-1.34,1.55-.54.38-1.09.62-1.65.75-.76.15-1.86.23-3.3.23h-2.07v5.94h-3.18ZM38.59,5.79v4.47h1.74c1.25,0,2.09-.08,2.51-.25.42-.17.75-.42.99-.77.24-.35.36-.76.36-1.22,0-.57-.17-1.05-.5-1.42-.34-.37-.76-.61-1.28-.7-.38-.07-1.14-.11-2.29-.11h-1.54Z"/>
      <path class="cls-2" d="M49.44,11.1c0-1.6.24-2.95.72-4.04.36-.8.85-1.52,1.47-2.16.62-.64,1.3-1.11,2.04-1.42.98-.42,2.11-.62,3.39-.62,2.32,0,4.18.72,5.57,2.16,1.39,1.44,2.09,3.44,2.09,6s-.69,4.53-2.07,5.97c-1.38,1.44-3.23,2.15-5.54,2.15s-4.2-.71-5.59-2.14c-1.38-1.43-2.07-3.4-2.07-5.9ZM52.71,10.99c0,1.78.41,3.13,1.24,4.05.82.92,1.87,1.38,3.14,1.38s2.31-.46,3.12-1.37c.81-.91,1.22-2.28,1.22-4.11s-.4-3.15-1.19-4.04c-.79-.89-1.84-1.33-3.15-1.33s-2.37.45-3.17,1.35c-.8.9-1.2,2.25-1.2,4.07Z"/>
    </g>
    <g class="cls-1">
      <path class="cls-2" d="M69.46,18.87V3.13h6.69c1.68,0,2.91.14,3.67.42.76.28,1.37.79,1.83,1.51.46.72.69,1.55.69,2.48,0,1.18-.35,2.16-1.04,2.93-.69.77-1.73,1.26-3.12,1.46.69.4,1.25.84,1.7,1.32.45.48,1.05,1.33,1.81,2.56l1.92,3.07h-3.8l-2.3-3.43c-.82-1.22-1.38-2-1.68-2.32-.3-.32-.62-.54-.96-.65-.34-.12-.87-.18-1.6-.18h-.64v6.57h-3.18ZM72.64,9.79h2.35c1.53,0,2.48-.06,2.86-.19.38-.13.68-.35.89-.67s.32-.71.32-1.18c0-.53-.14-.96-.42-1.28-.28-.33-.68-.53-1.2-.62-.26-.04-1.03-.05-2.32-.05h-2.48v4Z"/>
    </g>
    <g class="cls-1">
      <path class="cls-2" d="M88.94,18.87V5.79h-4.67v-2.66h12.51v2.66h-4.66v13.08h-3.18Z"/>
    </g>
    <g class="cls-1">
      <path class="cls-2" d="M98.07,13.75l3.09-.3c.19,1.04.56,1.8,1.13,2.29s1.34.73,2.3.73c1.02,0,1.79-.22,2.31-.65.52-.43.78-.94.78-1.52,0-.37-.11-.69-.33-.95-.22-.26-.6-.49-1.14-.68-.37-.13-1.22-.36-2.55-.69-1.71-.42-2.9-.94-3.59-1.56-.97-.87-1.45-1.92-1.45-3.17,0-.8.23-1.55.68-2.25.46-.7,1.11-1.23,1.97-1.6s1.89-.55,3.1-.55c1.98,0,3.46.43,4.46,1.3s1.52,2.02,1.57,3.47l-3.18.14c-.14-.81-.43-1.39-.88-1.75-.45-.35-1.12-.53-2.01-.53s-1.65.19-2.17.57c-.34.24-.5.57-.5.98,0,.37.16.69.47.96.4.34,1.38.69,2.92,1.05s2.69.74,3.43,1.13c.74.39,1.32.92,1.74,1.6.42.68.63,1.51.63,2.51,0,.9-.25,1.75-.75,2.54-.5.79-1.21,1.37-2.13,1.76-.92.38-2.06.57-3.43.57-1.99,0-3.52-.46-4.59-1.38-1.07-.92-1.71-2.26-1.91-4.02Z"/>
    </g>
    <g class="cls-1">
      <path class="cls-2" d="M112.92,18.87V3.13h5.1c1.93,0,3.19.08,3.78.24.9.24,1.66.75,2.27,1.54.61.79.91,1.81.91,3.07,0,.97-.18,1.78-.53,2.44-.35.66-.8,1.18-1.34,1.55-.54.38-1.09.62-1.65.75-.76.15-1.86.23-3.3.23h-2.07v5.94h-3.18ZM116.1,5.79v4.47h1.74c1.25,0,2.09-.08,2.51-.25.42-.17.75-.42.99-.77s.36-.76.36-1.22c0-.57-.17-1.05-.5-1.42-.34-.37-.76-.61-1.28-.7-.38-.07-1.14-.11-2.29-.11h-1.54Z"/>
    </g>
    <g class="cls-1">
      <path class="cls-2" d="M128.81,18.87V3.13h3.18v6.2h6.23V3.13h3.18v15.75h-3.18v-6.89h-6.23v6.89h-3.18Z"/>
      <path class="cls-2" d="M144.68,18.87V3.13h11.68v2.66h-8.5v3.49h7.91v2.65h-7.91v4.29h8.8v2.65h-11.98Z"/>
      <path class="cls-2" d="M159.37,18.87V3.13h6.69c1.68,0,2.91.14,3.67.42.76.28,1.37.79,1.83,1.51.46.72.69,1.55.69,2.48,0,1.18-.35,2.16-1.04,2.93-.7.77-1.73,1.26-3.12,1.46.69.4,1.25.84,1.7,1.32s1.05,1.33,1.81,2.56l1.92,3.07h-3.8l-2.3-3.43c-.82-1.22-1.38-2-1.68-2.32-.3-.32-.62-.54-.96-.65-.34-.12-.87-.18-1.6-.18h-.64v6.57h-3.18ZM162.55,9.79h2.35c1.53,0,2.48-.06,2.86-.19.38-.13.68-.35.89-.67s.32-.71.32-1.18c0-.53-.14-.96-.42-1.28-.28-.33-.68-.53-1.2-.62-.26-.04-1.03-.05-2.32-.05h-2.48v4Z"/>
      <path class="cls-2" d="M175.24,18.87V3.13h11.68v2.66h-8.5v3.49h7.91v2.65h-7.91v4.29h8.8v2.65h-11.98Z"/>
    </g>
  </g>
  <g class="cls-1">
    <g class="cls-1">
      <path class="cls-2" d="M36.84,27.74h-2.46v-.89h5.98v.89h-2.47v7.2h-1.06v-7.2Z"/>
    </g>
    <g class="cls-1">
      <path class="cls-2" d="M41.75,30.94c0-.68-.01-1.27-.05-1.81h.92l.04,1.14h.05c.26-.78.9-1.27,1.61-1.27.12,0,.2.01.3.04v1c-.11-.02-.22-.04-.36-.04-.74,0-1.27.56-1.42,1.36-.02.14-.05.31-.05.49v3.09h-1.04v-3.99Z"/>
    </g>
    <g class="cls-1">
      <path class="cls-2" d="M49.5,34.93l-.08-.73h-.04c-.32.46-.95.86-1.77.86-1.18,0-1.77-.83-1.77-1.67,0-1.4,1.25-2.17,3.49-2.16v-.12c0-.48-.13-1.34-1.32-1.34-.54,0-1.1.17-1.51.43l-.24-.7c.48-.31,1.18-.52,1.91-.52,1.77,0,2.21,1.21,2.21,2.37v2.17c0,.5.02,1,.1,1.39h-.96ZM49.35,31.97c-1.15-.02-2.46.18-2.46,1.31,0,.68.46,1.01,1,1.01.76,0,1.24-.48,1.4-.97.04-.11.06-.23.06-.34v-1.01Z"/>
    </g>
    <g class="cls-1">
      <path class="cls-2" d="M57.37,34.72c-.28.14-.89.34-1.67.34-1.75,0-2.89-1.19-2.89-2.96s1.22-3.08,3.12-3.08c.62,0,1.18.16,1.46.3l-.24.82c-.25-.14-.65-.28-1.22-.28-1.33,0-2.05.98-2.05,2.19,0,1.34.86,2.17,2.02,2.17.6,0,1-.16,1.3-.29l.18.79Z"/>
    </g>
    <g class="cls-1">
      <path class="cls-2" d="M60.75,31.79h.02c.14-.2.35-.46.52-.66l1.7-2h1.27l-2.24,2.39,2.55,3.42h-1.28l-2-2.78-.54.6v2.18h-1.04v-8.52h1.04v5.37Z"/>
    </g>
    <g class="cls-1">
      <path class="cls-2" d="M67.84,33.79v1.14c0,.3-.04.59-.13.85-.09.26-.3.51-.64.75l-.31-.42c.24-.19.39-.36.44-.5.06-.14.08-.37.08-.68h-.47v-1.14h1.02Z"/>
    </g>
    <g class="cls-1">
      <path class="cls-2" d="M77.77,34.67c-.38.19-1.15.38-2.13.38-2.28,0-3.99-1.44-3.99-4.09s1.72-4.25,4.22-4.25c1.01,0,1.64.22,1.92.36l-.25.85c-.4-.19-.96-.34-1.63-.34-1.9,0-3.15,1.21-3.15,3.33,0,1.98,1.14,3.25,3.11,3.25.64,0,1.28-.13,1.7-.34l.22.83Z"/>
    </g>
    <g class="cls-1">
      <path class="cls-2" d="M85.6,31.98c0,2.15-1.49,3.08-2.89,3.08-1.57,0-2.78-1.15-2.78-2.99,0-1.94,1.27-3.08,2.88-3.08s2.79,1.21,2.79,2.99ZM81,32.04c0,1.27.73,2.23,1.76,2.23s1.76-.95,1.76-2.25c0-.98-.49-2.23-1.74-2.23s-1.79,1.15-1.79,2.25Z"/>
      <path class="cls-2" d="M86.94,30.7c0-.6-.01-1.09-.05-1.57h.92l.05.94h.04c.32-.55.86-1.07,1.82-1.07.79,0,1.39.48,1.64,1.16h.02c.18-.32.41-.58.65-.76.35-.26.73-.41,1.28-.41.77,0,1.91.5,1.91,2.52v3.42h-1.03v-3.29c0-1.12-.41-1.79-1.26-1.79-.6,0-1.07.44-1.25.96-.05.14-.08.33-.08.53v3.59h-1.03v-3.48c0-.92-.41-1.59-1.21-1.59-.66,0-1.14.53-1.31,1.06-.06.16-.08.34-.08.52v3.5h-1.03v-4.23Z"/>
    </g>
    <g class="cls-1">
      <path class="cls-2" d="M100.51,31.02c0-.74-.02-1.34-.05-1.89h.95l.05,1h.02c.43-.71,1.12-1.13,2.06-1.13,1.4,0,2.46,1.19,2.46,2.95,0,2.09-1.27,3.12-2.64,3.12-.77,0-1.44-.34-1.79-.91h-.02v3.15h-1.04v-6.28ZM101.55,32.57c0,.16.02.3.05.43.19.73.83,1.24,1.58,1.24,1.12,0,1.76-.91,1.76-2.24,0-1.16-.61-2.16-1.73-2.16-.72,0-1.39.52-1.59,1.31-.04.13-.07.29-.07.43v1Z"/>
    </g>
    <g class="cls-1">
      <path class="cls-2" d="M111.79,34.93l-.08-.73h-.04c-.32.46-.95.86-1.78.86-1.17,0-1.77-.83-1.77-1.67,0-1.4,1.25-2.17,3.49-2.16v-.12c0-.48-.13-1.34-1.32-1.34-.54,0-1.1.17-1.51.43l-.24-.7c.48-.31,1.18-.52,1.91-.52,1.78,0,2.21,1.21,2.21,2.37v2.17c0,.5.02,1,.1,1.39h-.96ZM111.64,31.97c-1.15-.02-2.46.18-2.46,1.31,0,.68.46,1.01,1,1.01.75,0,1.24-.48,1.4-.97.04-.11.06-.23.06-.34v-1.01Z"/>
    </g>
    <g class="cls-1">
      <path class="cls-2" d="M115.51,30.94c0-.68-.01-1.27-.05-1.81h.92l.04,1.14h.05c.26-.78.9-1.27,1.61-1.27.12,0,.2.01.3.04v1c-.11-.02-.22-.04-.36-.04-.74,0-1.27.56-1.42,1.36-.02.14-.05.31-.05.49v3.09h-1.04v-3.99Z"/>
    </g>
    <g class="cls-1">
      <path class="cls-2" d="M120.59,32.22c.02,1.43.93,2.02,1.99,2.02.76,0,1.21-.13,1.61-.3l.18.75c-.37.17-1.01.36-1.93.36-1.79,0-2.85-1.18-2.85-2.93s1.03-3.13,2.72-3.13c1.89,0,2.4,1.67,2.4,2.73,0,.22-.02.38-.04.49h-4.08ZM123.68,31.47c.01-.67-.28-1.72-1.46-1.72-1.07,0-1.54.98-1.62,1.72h3.08Z"/>
      <path class="cls-2" d="M132.56,34.93l-.08-.73h-.04c-.32.46-.95.86-1.77.86-1.18,0-1.78-.83-1.78-1.67,0-1.4,1.25-2.17,3.49-2.16v-.12c0-.48-.13-1.34-1.32-1.34-.54,0-1.1.17-1.51.43l-.24-.7c.48-.31,1.17-.52,1.91-.52,1.77,0,2.21,1.21,2.21,2.37v2.17c0,.5.02,1,.1,1.39h-.96ZM132.41,31.97c-1.15-.02-2.46.18-2.46,1.31,0,.68.46,1.01,1,1.01.76,0,1.24-.48,1.4-.97.04-.11.06-.23.06-.34v-1.01Z"/>
    </g>
    <g class="cls-1">
      <path class="cls-2" d="M137.07,30.7c0-.6-.01-1.09-.05-1.57h.94l.06.96h.02c.29-.55.96-1.09,1.92-1.09.8,0,2.05.48,2.05,2.47v3.47h-1.06v-3.35c0-.94-.35-1.72-1.34-1.72-.7,0-1.24.49-1.42,1.08-.05.13-.07.31-.07.49v3.49h-1.06v-4.23Z"/>
    </g>
    <g class="cls-1">
      <path class="cls-2" d="M150.13,26.42v7.02c0,.52.01,1.1.05,1.5h-.95l-.05-1.01h-.02c-.32.65-1.03,1.14-1.98,1.14-1.4,0-2.48-1.19-2.48-2.95-.01-1.93,1.19-3.12,2.6-3.12.89,0,1.49.42,1.75.89h.02v-3.47h1.06ZM149.08,31.49c0-.13-.01-.31-.05-.44-.16-.67-.73-1.22-1.52-1.22-1.09,0-1.74.96-1.74,2.24,0,1.17.58,2.15,1.72,2.15.71,0,1.35-.47,1.55-1.26.04-.14.05-.29.05-.46v-1.01Z"/>
      <path class="cls-2" d="M152.96,33.79v1.14c0,.3-.04.59-.13.85-.09.26-.3.51-.64.75l-.31-.42c.24-.19.39-.36.44-.5.06-.14.08-.37.08-.68h-.47v-1.14h1.02Z"/>
    </g>
    <g class="cls-1">
      <path class="cls-2" d="M26.75,49.07c-.38.19-1.15.38-2.13.38-2.28,0-3.99-1.44-3.99-4.09s1.72-4.25,4.22-4.25c1.01,0,1.64.22,1.92.36l-.25.85c-.4-.19-.96-.34-1.63-.34-1.9,0-3.15,1.21-3.15,3.33,0,1.98,1.14,3.25,3.11,3.25.64,0,1.28-.13,1.7-.34l.22.83Z"/>
    </g>
    <g class="cls-1">
      <path class="cls-2" d="M29.91,46.62c.02,1.43.94,2.02,1.99,2.02.76,0,1.21-.13,1.61-.3l.18.75c-.37.17-1.01.36-1.93.36-1.79,0-2.85-1.18-2.85-2.93s1.03-3.13,2.72-3.13c1.9,0,2.4,1.67,2.4,2.73,0,.22-.02.38-.04.49h-4.08ZM33,45.87c.01-.67-.28-1.72-1.46-1.72-1.07,0-1.54.98-1.62,1.72h3.08Z"/>
      <path class="cls-2" d="M35.33,40.82h1.06v8.52h-1.06v-8.52Z"/>
      <path class="cls-2" d="M38.75,46.62c.02,1.43.94,2.02,1.99,2.02.76,0,1.21-.13,1.61-.3l.18.75c-.37.17-1.01.36-1.93.36-1.79,0-2.85-1.18-2.85-2.93s1.03-3.13,2.72-3.13c1.9,0,2.4,1.67,2.4,2.73,0,.22-.02.38-.04.49h-4.08ZM41.85,45.87c.01-.67-.28-1.72-1.46-1.72-1.07,0-1.54.98-1.62,1.72h3.08Z"/>
      <path class="cls-2" d="M44.13,49.33c.02-.4.05-.98.05-1.5v-7.02h1.04v3.65h.02c.37-.65,1.04-1.07,1.98-1.07,1.44,0,2.46,1.2,2.45,2.96,0,2.08-1.31,3.11-2.6,3.11-.84,0-1.51-.32-1.94-1.09h-.04l-.05.96h-.91ZM45.22,47.01c0,.13.02.26.05.38.2.73.82,1.24,1.58,1.24,1.1,0,1.76-.9,1.76-2.23,0-1.16-.6-2.16-1.73-2.16-.72,0-1.39.49-1.61,1.3-.02.12-.06.26-.06.43v1.04Z"/>
    </g>
    <g class="cls-1">
      <path class="cls-2" d="M54.64,45.34c0-.68-.01-1.27-.05-1.81h.92l.04,1.14h.05c.26-.78.9-1.27,1.61-1.27.12,0,.2.01.3.04v1c-.11-.02-.22-.04-.36-.04-.74,0-1.27.56-1.42,1.36-.02.14-.05.31-.05.49v3.09h-1.04v-3.99Z"/>
    </g>
    <g class="cls-1">
      <path class="cls-2" d="M62.39,49.33l-.08-.73h-.04c-.32.46-.95.86-1.77.86-1.18,0-1.77-.83-1.77-1.67,0-1.4,1.25-2.17,3.49-2.16v-.12c0-.48-.13-1.34-1.32-1.34-.54,0-1.1.17-1.51.43l-.24-.7c.48-.31,1.18-.52,1.91-.52,1.77,0,2.21,1.21,2.21,2.37v2.17c0,.5.02,1,.1,1.39h-.96ZM62.24,46.37c-1.15-.02-2.46.18-2.46,1.31,0,.68.46,1.01,1,1.01.76,0,1.24-.48,1.4-.97.04-.11.06-.23.06-.34v-1.01Z"/>
    </g>
    <g class="cls-1">
      <path class="cls-2" d="M67.39,41.86v1.67h1.51v.8h-1.51v3.13c0,.72.2,1.13.79,1.13.28,0,.48-.04.61-.07l.05.79c-.2.08-.53.14-.94.14-.49,0-.89-.16-1.14-.44-.3-.31-.41-.83-.41-1.51v-3.17h-.9v-.8h.9v-1.39l1.03-.28Z"/>
    </g>
    <g class="cls-1">
      <path class="cls-2" d="M71.17,46.62c.02,1.43.94,2.02,1.99,2.02.76,0,1.21-.13,1.61-.3l.18.75c-.37.17-1.01.36-1.93.36-1.79,0-2.85-1.18-2.85-2.93s1.03-3.13,2.72-3.13c1.9,0,2.4,1.67,2.4,2.73,0,.22-.02.38-.04.49h-4.08ZM74.26,45.87c.01-.67-.28-1.72-1.46-1.72-1.07,0-1.54.98-1.62,1.72h3.08Z"/>
    </g>
    <g class="cls-1">
      <path class="cls-2" d="M82.28,42.14h-2.46v-.89h5.98v.89h-2.47v7.2h-1.06v-7.2Z"/>
    </g>
    <g class="cls-1">
      <path class="cls-2" d="M91.96,46.38c0,2.15-1.49,3.08-2.89,3.08-1.57,0-2.78-1.15-2.78-2.99,0-1.94,1.27-3.08,2.88-3.08s2.79,1.21,2.79,2.99ZM87.36,46.44c0,1.27.73,2.23,1.76,2.23s1.76-.95,1.76-2.25c0-.98-.49-2.23-1.74-2.23s-1.79,1.15-1.79,2.25Z"/>
      <path class="cls-2" d="M93.3,45.42c0-.74-.02-1.34-.05-1.89h.95l.05,1h.02c.43-.71,1.12-1.13,2.06-1.13,1.4,0,2.46,1.19,2.46,2.95,0,2.09-1.27,3.12-2.64,3.12-.77,0-1.44-.34-1.79-.91h-.02v3.15h-1.04v-6.29ZM94.34,46.97c0,.16.02.3.05.43.19.73.83,1.24,1.58,1.24,1.12,0,1.76-.91,1.76-2.24,0-1.16-.61-2.16-1.73-2.16-.72,0-1.39.52-1.6,1.31-.04.13-.07.29-.07.43v1Z"/>
      <path class="cls-2" d="M103.35,48.06c.47.29,1.15.53,1.87.53,1.07,0,1.69-.56,1.69-1.38,0-.76-.43-1.19-1.52-1.61-1.32-.47-2.13-1.15-2.13-2.29,0-1.26,1.04-2.2,2.61-2.2.83,0,1.43.19,1.79.4l-.29.85c-.26-.14-.8-.38-1.54-.38-1.1,0-1.52.66-1.52,1.21,0,.76.49,1.13,1.61,1.56,1.37.53,2.06,1.19,2.06,2.37,0,1.25-.92,2.33-2.83,2.33-.78,0-1.63-.23-2.06-.52l.26-.88Z"/>
      <path class="cls-2" d="M109.38,45.42c0-.74-.02-1.34-.05-1.89h.95l.05,1h.02c.43-.71,1.12-1.13,2.06-1.13,1.4,0,2.46,1.19,2.46,2.95,0,2.09-1.27,3.12-2.64,3.12-.77,0-1.44-.34-1.79-.91h-.02v3.15h-1.04v-6.29ZM110.42,46.97c0,.16.02.3.05.43.19.73.83,1.24,1.58,1.24,1.12,0,1.76-.91,1.76-2.24,0-1.16-.61-2.16-1.73-2.16-.72,0-1.39.52-1.59,1.31-.04.13-.07.29-.07.43v1Z"/>
      <path class="cls-2" d="M121.46,46.38c0,2.15-1.49,3.08-2.89,3.08-1.57,0-2.78-1.15-2.78-2.99,0-1.94,1.27-3.08,2.88-3.08s2.79,1.21,2.79,2.99ZM116.85,46.44c0,1.27.73,2.23,1.76,2.23s1.76-.95,1.76-2.25c0-.98-.49-2.23-1.74-2.23s-1.79,1.15-1.79,2.25Z"/>
    </g>
    <g class="cls-1">
      <path class="cls-2" d="M127.88,45.34c0-.68-.01-1.27-.05-1.81h.92l.04,1.14h.05c.26-.78.9-1.27,1.61-1.27.12,0,.2.01.3.04v1c-.11-.02-.22-.04-.36-.04-.74,0-1.27.56-1.42,1.36-.02.14-.05.31-.05.49v3.09h-1.04v-3.99Z"/>
    </g>
    <g class="cls-1">
      <path class="cls-2" d="M133.98,41.86v1.67h1.51v.8h-1.51v3.13c0,.72.2,1.13.79,1.13.28,0,.48-.04.61-.07l.05.79c-.2.08-.53.14-.94.14-.49,0-.89-.16-1.14-.44-.3-.31-.41-.83-.41-1.51v-3.17h-.9v-.8h.9v-1.39l1.03-.28Z"/>
      <path class="cls-2" d="M139.91,48.06c.47.29,1.15.53,1.87.53,1.07,0,1.69-.56,1.69-1.38,0-.76-.43-1.19-1.52-1.61-1.32-.47-2.14-1.15-2.14-2.29,0-1.26,1.04-2.2,2.62-2.2.83,0,1.43.19,1.79.4l-.29.85c-.26-.14-.8-.38-1.54-.38-1.1,0-1.52.66-1.52,1.21,0,.76.49,1.13,1.61,1.56,1.37.53,2.06,1.19,2.06,2.37,0,1.25-.92,2.33-2.83,2.33-.78,0-1.63-.23-2.06-.52l.26-.88Z"/>
      <path class="cls-2" d="M147.17,41.86v1.67h1.51v.8h-1.51v3.13c0,.72.2,1.13.79,1.13.28,0,.48-.04.61-.07l.05.79c-.2.08-.53.14-.94.14-.49,0-.89-.16-1.14-.44-.3-.31-.41-.83-.41-1.51v-3.17h-.9v-.8h.9v-1.39l1.03-.28Z"/>
      <path class="cls-2" d="M153.08,49.33l-.08-.73h-.04c-.32.46-.95.86-1.77.86-1.18,0-1.78-.83-1.78-1.67,0-1.4,1.25-2.17,3.49-2.16v-.12c0-.48-.13-1.34-1.32-1.34-.54,0-1.1.17-1.51.43l-.24-.7c.48-.31,1.17-.52,1.91-.52,1.77,0,2.21,1.21,2.21,2.37v2.17c0,.5.02,1,.1,1.39h-.96ZM152.93,46.37c-1.15-.02-2.46.18-2.46,1.31,0,.68.46,1.01,1,1.01.76,0,1.24-.48,1.4-.97.04-.11.06-.23.06-.34v-1.01Z"/>
      <path class="cls-2" d="M156.88,41.86v1.67h1.51v.8h-1.51v3.13c0,.72.2,1.13.79,1.13.28,0,.48-.04.61-.07l.05.79c-.2.08-.53.14-.94.14-.49,0-.89-.16-1.14-.44-.3-.31-.41-.83-.41-1.51v-3.17h-.9v-.8h.9v-1.39l1.03-.28Z"/>
      <path class="cls-2" d="M159.43,48.25c.31.2.86.42,1.39.42.77,0,1.13-.38,1.13-.86s-.3-.78-1.08-1.07c-1.04-.37-1.54-.95-1.54-1.64,0-.94.75-1.7,2-1.7.59,0,1.1.17,1.43.36l-.26.77c-.23-.14-.65-.34-1.19-.34-.62,0-.97.36-.97.79,0,.48.35.7,1.1.98,1.01.38,1.52.89,1.52,1.75,0,1.02-.79,1.74-2.17,1.74-.64,0-1.22-.16-1.63-.4l.26-.8Z"/>
    </g>
  </g>
</svg>